<?xml version="1.0" encoding="UTF-8"?> <svg xmlns="http://www.w3.org/2000/svg" width="135" height="175" viewBox="0 0 135 175" fill="none"><g clip-path="url(#clip0_3032_3056)"><path d="M67.5107 133.851C30.6394 133.851 0.640625 103.825 0.640625 66.9197C0.640625 30.0148 30.6394 0 67.5107 0C104.382 0 134.37 30.0261 134.37 66.9197C134.37 103.813 104.371 133.839 67.5107 133.839V133.851ZM67.5107 6.75502C34.3625 6.75502 7.3895 33.7413 7.3895 66.9197C7.3895 100.098 34.3625 127.084 67.4995 127.084C100.636 127.084 127.609 100.098 127.609 66.9197C127.609 33.7413 100.659 6.75502 67.5107 6.75502Z" fill="#1D1D1B"></path><path d="M63.0907 56.4497H54.3172C53.676 50.7867 49.3005 48.0284 43.2828 48.0284C38.0524 48.0284 33.5981 50.8655 33.5981 54.8284C33.5981 59.4331 37.4225 60.9868 46.0498 62.6192C57.9278 64.8146 64.508 69.7007 64.508 78.7637C64.508 89.6618 54.1822 93.7711 44.2051 93.7711C32.3946 93.7711 24.116 88.6035 23.3398 77.0637H32.1809C32.8895 82.5916 37.13 85.8452 44.4188 85.8452C50.3578 85.8452 55.8019 83.7962 55.8019 79.1915C55.8019 74.5869 52.0563 72.2564 43.0016 70.5564C31.4722 68.4285 24.9708 64.0378 24.9708 55.1212C24.9708 45.7092 33.4632 40.1138 43.6427 40.1138C55.3183 40.1138 62.742 45.7767 63.0907 56.4722V56.4497Z" fill="#1D1D1B"></path><path d="M95.6201 41.2959C104.315 42.1403 109.478 46.8125 109.478 54.3218C109.478 59.7033 106.441 64.0941 100.85 65.7941C108.207 67.2127 111.671 71.4571 111.671 78.5386C111.671 87.6691 104.877 91.7784 97.1723 92.5552C94.9789 92.7691 93.1455 92.7691 90.7384 92.7691H72.6289V41.0933H89.2536C91.582 41.0933 93.078 41.0933 95.6201 41.3072V41.2959ZM90.176 62.8219C95.3389 62.8219 100.434 61.4709 100.434 55.9543C100.434 50.8543 96.7561 48.8728 90.4572 48.8728H81.4024V62.8219H90.176ZM92.2231 84.9784C98.2296 84.9784 102.695 82.8505 102.695 77.8969C102.695 72.369 98.3084 70.6014 91.0983 70.6014H81.4137V84.9671H92.2344L92.2231 84.9784Z" fill="#1D1D1B"></path><path d="M135.001 149.612H0.0234375V156.367H135.001V149.612Z" fill="#1D1D1B"></path><path d="M10.7762 164.89H8.40282C8.2341 163.347 7.0418 162.604 5.41082 162.604C3.99356 162.604 2.79001 163.37 2.79001 164.451C2.79001 165.7 3.82483 166.117 6.16444 166.567C9.38141 167.164 11.1699 168.481 11.1699 170.936C11.1699 173.885 8.36908 175 5.66953 175C2.46381 175 0.225433 173.604 0.0117188 170.474H2.40757C2.59879 171.971 3.7461 172.85 5.72577 172.85C7.33425 172.85 8.80775 172.298 8.80775 171.048C8.80775 169.799 7.79542 169.168 5.34333 168.706C2.21635 168.132 0.450396 166.939 0.450396 164.53C0.450396 161.974 2.75626 160.465 5.51205 160.465C8.67278 160.465 10.6862 161.996 10.7874 164.901L10.7762 164.89Z" fill="#1D1D1B"></path><path d="M17.6954 164.395C20.9349 164.395 22.7346 166.173 22.7346 169.686C22.7346 173.199 20.9124 175 17.6954 175C14.4784 175 12.6562 173.221 12.6562 169.686C12.6562 166.151 14.4559 164.395 17.6954 164.395ZM17.6954 173.007C19.3489 173.007 20.305 172.118 20.305 169.686C20.305 167.254 19.3489 166.387 17.6954 166.387C16.0419 166.387 15.0746 167.288 15.0746 169.686C15.0746 172.084 16.0532 173.007 17.6954 173.007Z" fill="#1D1D1B"></path><path d="M33.5063 168.076H31.2004C31.0992 166.984 30.3005 166.387 29.052 166.387C27.5223 166.387 26.6224 167.389 26.6224 169.663C26.6224 171.938 27.4323 173.007 29.0408 173.007C30.1881 173.007 31.0542 172.32 31.2116 171.318H33.5175C33.2476 173.548 31.7516 175 28.9395 175C25.7001 175 24.2266 173.041 24.2266 169.708C24.2266 166.376 25.7451 164.395 29.1195 164.395C32.1452 164.395 33.36 165.892 33.5288 168.076H33.5063Z" fill="#1D1D1B"></path><path d="M36.3204 160.263C37.0515 160.263 37.6477 160.859 37.6477 161.591C37.6477 162.323 37.0515 162.897 36.3204 162.897C35.5893 162.897 35.0156 162.323 35.0156 161.591C35.0156 160.859 35.5893 160.263 36.3204 160.263ZM37.4902 174.73H35.1731V164.653H37.4902V174.73Z" fill="#1D1D1B"></path><path d="M48.7287 169.528C48.7287 169.799 48.7062 170.159 48.695 170.474H41.6762C41.8449 172.332 42.6772 173.007 44.1282 173.007C45.2981 173.007 45.9842 172.568 46.2541 171.746H48.56C48.1776 173.818 46.5803 175.011 44.0495 175.011C40.8888 175.011 39.2578 173.21 39.2578 169.753C39.2578 166.297 40.8101 164.406 44.1282 164.406C47.4464 164.406 48.7287 166.59 48.7287 169.551V169.528ZM46.3329 168.65C46.1642 167.018 45.3205 166.387 44.027 166.387C42.666 166.387 41.8561 166.961 41.6874 168.65H46.3216H46.3329Z" fill="#1D1D1B"></path><path d="M55.7798 172.928V174.831C55.2061 174.91 54.7112 174.944 53.9239 174.944C52.0454 174.944 51.4155 174.178 51.3143 172.951C51.2805 172.411 51.2805 172.005 51.2805 171.431V166.613H49.8633V164.687H51.2805V161.693H53.5977V164.687H55.8585V166.613H53.5977V171.375C53.5977 172.928 53.9239 173.041 55.7798 172.928Z" fill="#1D1D1B"></path><path d="M65.6904 167.423C65.7242 167.941 65.7467 168.38 65.7467 168.965V174.741H63.632L63.5195 173.458C62.9684 174.786 61.6636 175.011 60.2238 175.011C58.4579 175.011 56.9844 173.953 56.9844 172.016C56.9844 169.405 58.9978 168.526 62.9684 168.526H63.4296V168.222C63.4296 167.13 63.1034 166.399 61.5286 166.399C60.1901 166.399 59.5714 166.838 59.4365 167.896H57.3331C57.4118 165.779 58.6154 164.406 61.6299 164.406C64.4531 164.406 65.5554 165.667 65.6904 167.434V167.423ZM58.4016 159.857L61.0674 159.902L64.2169 162.841V162.931H62.046L58.4016 159.959V159.857ZM60.9775 173.007C62.2035 173.007 63.4296 172.332 63.4296 171.24V170.361C60.9212 170.26 59.324 170.452 59.324 171.724C59.324 172.546 59.9764 173.007 60.9775 173.007Z" fill="#1D1D1B"></path><path d="M78.7944 160.78C81.1565 161.017 82.5513 162.278 82.5513 164.316C82.5513 165.768 81.7302 166.961 80.2117 167.423C82.2026 167.806 83.1475 168.965 83.1475 170.879C83.1475 173.356 81.3028 174.471 79.2219 174.684C78.6257 174.741 78.1308 174.741 77.4784 174.741H72.5742V160.735H77.0847C77.7146 160.735 78.1195 160.735 78.8057 160.792L78.7944 160.78ZM77.3209 166.612C78.7157 166.612 80.0992 166.252 80.0992 164.755C80.0992 163.37 79.0981 162.841 77.3997 162.841H74.9476V166.623H77.3209V166.612ZM77.8833 172.624C79.5143 172.624 80.7179 172.05 80.7179 170.71C80.7179 169.213 79.5256 168.729 77.5684 168.729H74.9476V172.624H77.8833Z" fill="#1D1D1B"></path><path d="M94.2131 169.528C94.2131 169.799 94.1906 170.159 94.1794 170.474H87.1605C87.3293 172.332 88.1616 173.007 89.6126 173.007C90.7824 173.007 91.4686 172.568 91.7385 171.746H94.0444C93.662 173.818 92.0647 175.011 89.5339 175.011C86.3732 175.011 84.7422 173.21 84.7422 169.753C84.7422 166.297 86.2944 164.406 89.6126 164.406C92.9308 164.406 94.2131 166.59 94.2131 169.551V169.528ZM91.8173 168.65C91.6485 167.018 90.8049 166.387 89.5114 166.387C88.1504 166.387 87.3405 166.961 87.1718 168.65H91.806H91.8173Z" fill="#1D1D1B"></path><path d="M105.034 167.097C105.09 167.614 105.113 168.076 105.113 168.898V174.73H102.796V168.898C102.796 167.401 102.436 166.421 100.704 166.421C99.3426 166.365 98.364 167.299 98.364 169.393V174.73H96.0469V164.654H98.1728L98.274 166.263C98.5665 164.811 99.8038 164.383 101.48 164.383C103.572 164.383 104.798 165.205 105.045 167.085L105.034 167.097Z" fill="#1D1D1B"></path><path d="M116.354 169.528C116.354 169.799 116.331 170.159 116.32 170.474H109.301C109.47 172.332 110.302 173.007 111.753 173.007C112.923 173.007 113.609 172.568 113.879 171.746H116.185C115.803 173.818 114.205 175.011 111.675 175.011C108.514 175.011 106.883 173.21 106.883 169.753C106.883 166.297 108.435 164.406 111.753 164.406C115.071 164.406 116.354 166.59 116.354 169.551V169.528ZM113.958 168.65C113.789 167.018 112.946 166.387 111.652 166.387C110.291 166.387 109.481 166.961 109.312 168.65H113.947H113.958Z" fill="#1D1D1B"></path><path d="M123.053 160.555V162.492C121.254 162.244 120.793 162.785 120.793 163.91V164.698H122.862V166.624H120.793V174.741H118.475V166.624H117.328V164.698H118.475V164.046C118.475 163.742 118.475 163.505 118.498 163.145C118.61 161.557 119.533 160.465 121.76 160.465C122.255 160.465 122.637 160.488 123.065 160.555H123.053ZM125.618 160.263C126.349 160.263 126.945 160.859 126.945 161.591C126.945 162.323 126.349 162.897 125.618 162.897C124.887 162.897 124.313 162.323 124.313 161.591C124.313 160.859 124.887 160.263 125.618 160.263ZM124.471 164.653H126.788V174.73H124.471V164.653Z" fill="#1D1D1B"></path><path d="M134.463 172.928V174.831C133.89 174.91 133.395 174.943 132.607 174.943C130.729 174.943 130.099 174.178 129.998 172.951C129.964 172.41 129.964 172.005 129.964 171.431V166.612H128.547V164.687H129.964V161.692H132.281V164.687H134.542V166.612H132.281V171.375C132.281 172.928 132.607 173.041 134.463 172.928Z" fill="#1D1D1B"></path></g><defs><clipPath id="clip0_3032_3056"><rect width="135" height="175" fill="white"></rect></clipPath></defs></svg> 